<svg xmlns="http://www.w3.org/2000/svg" viewBox="0 0 759 390" width="759" height="390" role="img" aria-label="WarGames style outline map of the United States with Alaska and Hawaii insets">
  <defs>
    <filter id="glowBlue" x="-50%" y="-50%" width="200%" height="200%">
      <feGaussianBlur stdDeviation="1.3" result="blur1"/>
      <feColorMatrix in="blur1" type="matrix" values="
        0 0 0 0 0.26
        0 0 0 0 0.76
        0 0 0 0 1.00
        0 0 0 0.90 0" result="blueGlow"/>
      <feMerge>
        <feMergeNode in="blueGlow"/>
        <feMergeNode in="SourceGraphic"/>
      </feMerge>
    </filter>

    <linearGradient id="frameGrad" x1="0%" y1="0%" x2="100%" y2="0%">
      <stop offset="0%" stop-color="#3fc3ff"/>
      <stop offset="50%" stop-color="#93dfff"/>
      <stop offset="100%" stop-color="#ff5b5b"/>
    </linearGradient>

    <linearGradient id="strokeGrad" x1="0%" y1="50%" x2="100%" y2="50%">
      <stop offset="0%" stop-color="#73d4ff"/>
      <stop offset="55%" stop-color="#d7f3ff"/>
      <stop offset="100%" stop-color="#ff8467"/>
    </linearGradient>

    <pattern id="scanlines" width="4" height="4" patternUnits="userSpaceOnUse">
      <rect width="4" height="1" fill="rgba(255,255,255,0.045)"/>
    </pattern>
  </defs>

  <rect width="100%" height="100%" fill="#050914"/>
  <rect width="100%" height="100%" fill="url(#scanlines)" opacity="0.18"/>

  <!-- subtle frame guides to preserve the inset layout -->
  <rect x="8" y="6" width="139" height="146" fill="none" stroke="url(#frameGrad)" stroke-opacity="0.22" stroke-width="0.8"/>
  <rect x="8" y="159" width="139" height="126" fill="none" stroke="url(#frameGrad)" stroke-opacity="0.18" stroke-width="0.8"/>
  <rect x="144" y="2" width="607" height="300" fill="none" stroke="url(#frameGrad)" stroke-opacity="0.16" stroke-width="0.8"/>

  <g filter="url(#glowBlue)" fill="none" stroke="#4da6ff" stroke-width="1.35" stroke-linejoin="round" stroke-linecap="round">
    <path d="M 537.0 305.5 L 492.0 299.5 L 489.0 297.5 L 477.0 303.5 L 487.5 297.0 L 489.5 292.0 L 490.0 279.5 L 491.5 281.0 L 489.5 294.0 L 491.0 297.5 L 537.0 303.5 L 539.5 289.0 L 535.0 281.5 L 518.0 281.5 L 514.5 279.0 L 518.0 255.5 L 486.0 255.5 L 483.5 257.0 L 483.0 268.5 L 481.5 267.0 L 482.5 255.0 L 478.0 248.5 L 440.0 246.5 L 415.0 236.5 L 412.5 234.0 L 413.5 211.0 L 412.0 209.5 L 381.5 209.0 L 379.5 242.0 L 376.5 264.0 L 374.0 265.5 L 336.0 264.5 L 336.5 268.0 L 335.0 268.5 L 331.0 263.5 L 314.0 261.5 L 310.0 266.5 L 306.0 266.5 L 303.0 264.5 L 280.0 262.5 L 264.5 255.0 L 267.0 253.5 L 279.0 260.5 L 302.5 263.0 L 307.5 228.0 L 313.5 203.0 L 313.5 194.0 L 266.0 184.5 L 259.0 184.5 L 256.5 191.0 L 254.0 193.5 L 249.0 193.5 L 247.5 196.0 L 246.5 211.0 L 248.5 217.0 L 242.0 229.5 L 241.5 226.0 L 246.5 217.0 L 246.5 213.0 L 228.5 185.0 L 244.0 204.5 L 246.5 193.0 L 254.0 191.5 L 256.5 187.0 L 262.0 167.5 L 262.5 173.0 L 260.0 182.5 L 314.0 191.5 L 315.5 190.0 L 315.5 182.0 L 322.5 144.0 L 316.0 141.5 L 303.0 140.5 L 302.5 139.0 L 374.0 147.5 L 380.5 106.0 L 380.5 100.0 L 376.0 98.5 L 316.0 90.5 L 313.5 93.0 L 308.0 115.5 L 307.5 109.0 L 311.5 97.0 L 293.0 91.5 L 282.5 76.0 L 282.5 70.0 L 285.5 65.0 L 285.5 57.0 L 274.5 43.0 L 274.5 38.0 L 277.5 34.0 L 277.5 31.0 L 275.0 29.5 L 270.5 31.0 L 264.5 46.0 L 258.5 64.0 L 260.5 69.0 L 259.5 75.0 L 255.0 84.5 L 254.5 81.0 L 258.5 71.0 L 258.5 68.0 L 256.0 65.5 L 239.0 61.5 L 226.0 62.5 L 210.0 58.5 L 204.0 56.5 L 200.0 49.5 L 193.0 46.5 L 170.5 80.0 L 169.5 94.0 L 242.0 113.5 L 244.5 111.0 L 254.0 84.5 L 254.5 88.0 L 244.5 113.0 L 267.0 119.5 L 294.0 123.5 L 298.0 125.5 L 304.5 125.0 L 307.0 115.5 L 307.5 121.0 L 302.5 138.0 L 300.5 137.0 L 303.0 127.5 L 275.0 122.5 L 263.0 167.5 L 262.5 161.0 L 272.5 126.0 L 272.0 121.5 L 213.0 107.5 L 200.0 145.5 L 198.5 142.0 L 210.5 107.0 L 169.0 96.5 L 157.5 133.0 L 166.5 148.0 L 164.5 165.0 L 175.5 198.0 L 180.5 201.0 L 176.0 200.5 L 172.5 196.0 L 162.5 166.0 L 162.5 159.0 L 165.5 150.0 L 157.5 137.0 L 156.5 130.0 L 167.5 97.0 L 167.5 81.0 L 191.5 45.0 L 195.5 20.0 L 200.0 18.5 L 216.0 24.5 L 216.5 17.0 L 221.0 15.5 L 224.0 17.5 L 239.0 19.5 L 242.0 21.5 L 248.0 21.5 L 251.0 23.5 L 262.0 24.5 L 284.0 30.5 L 337.0 37.5 L 366.0 43.5 L 386.0 45.5 L 389.0 47.5 L 473.0 50.5 L 500.0 60.5 L 522.0 60.5 L 525.5 64.0 L 522.0 67.5 L 510.0 71.5 L 504.5 80.0 L 515.0 76.5 L 526.0 84.5 L 536.5 88.0 L 533.0 88.5 L 522.0 84.5 L 515.0 78.5 L 503.0 82.5 L 501.5 84.0 L 502.5 88.0 L 496.5 93.0 L 501.0 110.5 L 496.5 107.0 L 494.5 92.0 L 500.5 88.0 L 499.5 83.0 L 506.5 72.0 L 522.0 65.5 L 523.5 64.0 L 522.0 62.5 L 500.0 62.5 L 473.0 52.5 L 454.0 52.5 L 453.0 56.5 L 452.0 52.5 L 447.0 51.5 L 391.0 48.5 L 389.5 50.0 L 384.5 84.0 L 399.0 86.5 L 456.0 88.5 L 456.0 71.5 L 458.5 83.0 L 458.5 119.0 L 460.0 120.5 L 510.0 121.5 L 509.5 116.0 L 501.5 112.0 L 504.0 110.5 L 511.5 116.0 L 514.5 126.0 L 520.0 132.5 L 546.0 132.5 L 547.5 131.0 L 546.5 113.0 L 553.5 99.0 L 547.0 100.5 L 545.5 98.0 L 547.5 98.0 L 550.5 91.0 L 555.0 88.5 L 550.5 97.0 L 554.0 96.5 L 555.5 101.0 L 548.5 113.0 L 548.5 132.0 L 553.0 142.5 L 559.5 140.0 L 562.0 130.5 L 561.0 139.5 L 587.0 139.5 L 599.5 137.0 L 604.5 123.0 L 599.0 110.5 L 592.0 115.5 L 587.5 114.0 L 593.5 103.0 L 590.5 94.0 L 577.0 90.5 L 570.5 93.0 L 573.0 89.5 L 584.0 89.5 L 591.0 91.5 L 595.5 103.0 L 589.5 113.0 L 592.0 113.5 L 600.0 108.5 L 606.5 122.0 L 606.5 126.0 L 601.5 137.0 L 616.5 135.0 L 600.0 140.5 L 584.0 140.5 L 582.5 142.0 L 585.5 171.0 L 588.0 173.5 L 597.0 175.5 L 615.0 177.5 L 624.0 166.5 L 624.5 168.0 L 616.5 178.0 L 616.5 183.0 L 619.0 186.5 L 634.0 186.5 L 646.0 175.5 L 647.5 177.0 L 637.0 186.5 L 628.0 188.5 L 617.0 188.5 L 613.0 179.5 L 588.0 174.5 L 586.0 174.5 L 579.0 182.5 L 584.5 173.0 L 580.5 142.0 L 579.0 140.5 L 558.0 141.5 L 552.5 146.0 L 557.5 178.0 L 552.5 191.0 L 569.0 188.5 L 574.0 186.5 L 577.0 182.5 L 578.5 184.0 L 574.0 188.5 L 551.0 193.5 L 538.5 207.0 L 601.0 203.5 L 610.0 193.5 L 611.5 195.0 L 604.0 203.5 L 687.0 192.5 L 688.5 191.0 L 682.5 182.0 L 683.0 179.5 L 690.5 190.0 L 690.5 193.0 L 627.0 201.5 L 623.0 204.5 L 620.0 202.5 L 588.0 206.5 L 539.0 209.5 L 534.5 215.0 L 533.0 227.5 L 594.0 225.5 L 606.0 216.5 L 598.0 225.5 L 612.0 223.5 L 625.0 218.5 L 631.0 218.5 L 654.0 221.5 L 665.0 229.5 L 670.5 230.0 L 665.0 234.5 L 663.0 229.5 L 652.0 222.5 L 635.0 221.5 L 629.0 219.5 L 613.5 224.0 L 613.5 226.0 L 624.5 237.0 L 623.0 238.5 L 611.0 225.5 L 584.0 227.5 L 593.5 276.0 L 597.0 279.5 L 635.0 276.5 L 639.0 269.5 L 639.5 275.0 L 637.5 277.0 L 639.5 278.0 L 639.5 281.0 L 636.0 277.5 L 598.0 281.5 L 592.0 277.5 L 569.0 279.5 L 564.5 282.0 L 565.5 286.0 L 569.0 288.5 L 588.0 294.5 L 613.0 290.5 L 621.5 299.0 L 620.0 299.5 L 613.0 292.5 L 586.0 295.5 L 564.0 287.5 L 542.0 290.5 L 539.5 303.0 L 537.0 305.5 Z"/><path d="M 256.5 63.0 L 262.5 50.0 L 269.0 28.5 L 222.0 17.5 L 218.5 18.0 L 218.5 24.0 L 216.0 26.5 L 198.5 20.0 L 193.5 45.0 L 203.0 49.5 L 204.0 54.5 L 224.0 60.5 L 238.0 59.5 L 247.0 62.5 L 256.5 63.0 Z"/><path d="M 381.5 97.0 L 384.5 70.0 L 387.5 60.0 L 388.5 49.0 L 387.0 47.5 L 279.5 31.0 L 276.5 42.0 L 287.5 57.0 L 284.5 75.0 L 294.0 90.5 L 312.0 93.5 L 314.0 89.5 L 325.0 89.5 L 376.0 97.5 L 381.5 97.0 Z"/><path d="M 682.0 179.5 L 677.0 175.5 L 671.0 174.5 L 670.5 168.0 L 662.0 163.5 L 650.0 173.5 L 649.5 172.0 L 659.5 163.0 L 659.0 160.5 L 645.0 164.5 L 641.0 159.5 L 632.0 159.5 L 625.0 166.5 L 626.5 161.0 L 629.5 158.0 L 626.5 148.0 L 625.5 135.0 L 624.0 133.5 L 616.5 134.0 L 629.5 131.0 L 626.5 133.0 L 626.5 136.0 L 629.5 146.0 L 629.5 154.0 L 632.0 158.5 L 642.0 158.5 L 684.0 151.5 L 687.5 131.0 L 682.5 126.0 L 684.0 125.5 L 690.0 130.5 L 698.0 131.5 L 699.5 130.0 L 697.5 109.0 L 688.0 82.5 L 681.0 82.5 L 674.0 84.5 L 671.0 88.5 L 670.5 87.0 L 674.0 82.5 L 689.0 80.5 L 691.0 78.5 L 710.0 73.5 L 714.5 65.0 L 712.5 53.0 L 716.5 42.0 L 719.0 40.5 L 733.0 41.5 L 741.0 60.5 L 738.5 59.0 L 731.0 42.5 L 719.0 42.5 L 713.5 55.0 L 716.5 63.0 L 712.5 74.0 L 722.5 97.0 L 726.5 96.0 L 723.5 101.0 L 726.5 106.0 L 723.0 102.5 L 719.0 102.5 L 710.0 106.5 L 699.0 108.5 L 698.5 116.0 L 715.0 114.5 L 719.0 112.5 L 726.0 117.5 L 736.5 116.0 L 725.0 119.5 L 707.0 128.5 L 703.5 128.0 L 717.5 121.0 L 715.5 116.0 L 711.0 115.5 L 699.5 119.0 L 700.5 128.0 L 703.5 129.0 L 698.5 133.0 L 699.5 145.0 L 691.5 154.0 L 698.5 167.0 L 698.5 172.0 L 694.0 177.5 L 686.0 175.5 L 682.5 167.0 L 682.5 161.0 L 681.0 160.5 L 680.5 176.0 L 682.0 179.5 Z"/><path d="M 455.0 71.5 L 454.0 56.5 L 455.0 71.5 Z"/><path d="M 556.0 82.5 L 538.0 78.5 L 537.5 76.0 L 540.5 73.0 L 541.0 69.5 L 534.0 73.5 L 532.5 72.0 L 539.0 67.5 L 543.0 67.5 L 543.5 71.0 L 540.5 77.0 L 551.0 80.5 L 560.5 79.0 L 556.0 82.5 Z"/><path d="M 524.0 80.5 L 523.0 78.5 L 532.5 74.0 L 524.0 80.5 Z"/><path d="M 559.0 88.5 L 555.5 88.0 L 566.0 83.5 L 580.5 84.0 L 578.5 80.0 L 575.0 78.5 L 567.0 76.5 L 561.0 78.5 L 560.5 77.0 L 563.0 75.5 L 578.0 77.5 L 583.5 84.0 L 582.0 86.5 L 568.0 84.5 L 559.0 88.5 Z"/><path d="M 710.5 104.0 L 721.0 101.5 L 721.5 98.0 L 715.5 87.0 L 713.5 79.0 L 711.0 75.5 L 709.0 75.5 L 707.5 104.0 L 710.5 104.0 Z"/><path d="M 703.5 106.0 L 705.5 105.0 L 706.0 77.5 L 690.5 81.0 L 690.5 86.0 L 698.5 106.0 L 703.5 106.0 Z"/><path d="M 456.5 133.0 L 457.0 90.5 L 384.5 87.0 L 380.0 123.5 L 424.0 125.5 L 456.5 133.0 Z"/><path d="M 634.0 130.5 L 629.5 130.0 L 633.5 128.0 L 638.5 113.0 L 642.0 110.5 L 662.0 106.5 L 663.5 105.0 L 662.5 98.0 L 670.0 88.5 L 670.5 90.0 L 664.5 97.0 L 665.5 106.0 L 662.0 108.5 L 641.0 112.5 L 635.5 128.0 L 671.0 123.5 L 682.0 123.5 L 682.5 125.0 L 640.0 128.5 L 634.0 130.5 Z"/><path d="M 560.0 112.5 L 558.5 107.0 L 565.0 99.5 L 565.5 101.0 L 560.5 107.0 L 560.0 112.5 Z"/><path d="M 733.0 114.5 L 731.0 114.5 L 728.5 111.0 L 732.0 112.5 L 735.0 107.5 L 736.5 110.0 L 733.0 114.5 Z"/><path d="M 563.0 130.5 L 563.0 117.5 L 565.5 121.0 L 563.0 130.5 Z"/><path d="M 496.5 209.0 L 535.0 208.5 L 537.5 207.0 L 539.5 202.0 L 529.5 192.0 L 531.0 191.5 L 541.0 200.5 L 550.5 192.0 L 555.5 180.0 L 555.5 174.0 L 551.5 145.0 L 546.0 133.5 L 520.0 133.5 L 524.5 143.0 L 520.0 151.5 L 522.5 142.0 L 511.0 123.5 L 461.0 121.5 L 458.5 123.0 L 458.5 134.0 L 470.0 158.5 L 509.0 158.5 L 512.0 161.5 L 519.0 151.5 L 519.5 154.0 L 514.5 161.0 L 514.5 165.0 L 517.5 169.0 L 516.0 169.5 L 506.0 159.5 L 471.0 159.5 L 469.5 161.0 L 471.0 167.5 L 419.0 164.5 L 397.5 165.0 L 394.0 200.5 L 476.0 203.5 L 475.5 172.0 L 471.5 168.0 L 474.0 167.5 L 476.5 170.0 L 477.5 175.0 L 478.5 209.0 L 496.5 209.0 Z"/><path d="M 466.5 165.0 L 466.5 155.0 L 456.0 134.5 L 425.0 127.5 L 401.0 125.5 L 379.5 126.0 L 376.5 147.0 L 398.0 151.5 L 398.0 162.5 L 466.5 165.0 Z"/><path d="M 706.0 136.5 L 701.0 136.5 L 700.5 133.0 L 712.0 127.5 L 718.5 127.0 L 711.0 134.5 L 708.5 134.0 L 716.0 127.5 L 704.0 132.5 L 703.0 135.5 L 708.5 135.0 L 706.0 136.5 Z"/><path d="M 690.5 152.0 L 698.5 144.0 L 698.5 135.0 L 696.0 132.5 L 688.5 133.0 L 685.5 151.0 L 690.5 152.0 Z"/><path d="M 390.5 200.0 L 392.5 197.0 L 397.0 152.5 L 328.0 143.5 L 323.5 145.0 L 316.5 189.0 L 318.0 192.5 L 366.0 197.5 L 372.0 199.5 L 390.5 200.0 Z"/><path d="M 693.5 175.0 L 696.5 171.0 L 689.5 169.0 L 687.5 161.0 L 692.0 169.5 L 697.5 169.0 L 689.0 153.5 L 686.5 154.0 L 687.0 160.5 L 684.0 153.5 L 658.0 156.5 L 644.5 160.0 L 645.0 162.5 L 648.0 162.5 L 660.0 158.5 L 663.0 162.5 L 671.5 167.0 L 673.0 173.5 L 679.0 174.5 L 678.5 161.0 L 680.0 158.5 L 683.0 158.5 L 685.5 164.0 L 685.5 172.0 L 691.0 175.5 L 693.5 175.0 Z"/><path d="M 228.0 184.5 L 218.5 173.0 L 217.0 167.5 L 228.5 183.0 L 228.0 184.5 Z"/><path d="M 529.0 191.5 L 524.5 188.0 L 523.5 180.0 L 517.5 172.0 L 518.0 169.5 L 524.5 178.0 L 525.5 186.0 L 529.0 191.5 Z"/><path d="M 310.5 264.0 L 313.0 260.5 L 324.0 260.5 L 329.0 262.5 L 374.0 263.5 L 376.5 253.0 L 380.5 202.0 L 317.0 193.5 L 304.5 260.0 L 305.0 264.5 L 310.5 264.0 Z"/><path d="M 672.0 229.5 L 671.0 227.5 L 690.5 214.0 L 693.5 206.0 L 693.5 200.0 L 690.5 195.0 L 692.0 193.5 L 695.5 200.0 L 692.5 214.0 L 672.0 229.5 Z"/><path d="M 208.0 232.5 L 205.5 229.0 L 203.5 214.0 L 186.0 204.5 L 181.0 203.5 L 181.0 201.5 L 190.0 204.5 L 204.5 213.0 L 208.0 232.5 Z"/><path d="M 478.5 247.0 L 476.0 204.5 L 415.0 203.5 L 393.0 201.5 L 383.0 201.5 L 381.5 203.0 L 383.0 206.5 L 415.0 208.5 L 414.5 233.0 L 423.0 238.5 L 444.0 245.5 L 478.5 247.0 Z"/><path d="M 518.5 254.0 L 529.5 230.0 L 534.5 210.0 L 480.0 210.5 L 478.5 212.0 L 479.5 240.0 L 483.5 253.0 L 485.0 254.5 L 518.5 254.0 Z"/><path d="M 562.5 286.0 L 563.0 279.5 L 591.5 276.0 L 583.5 232.0 L 581.0 227.5 L 553.5 230.0 L 553.5 286.0 L 562.5 286.0 Z"/><path d="M 264.0 253.5 L 247.0 245.5 L 237.0 238.5 L 229.0 238.5 L 208.5 233.0 L 214.0 232.5 L 236.0 237.5 L 241.0 229.5 L 239.5 239.0 L 264.0 251.5 L 264.0 253.5 Z"/><path d="M 549.5 288.0 L 551.5 287.0 L 552.5 281.0 L 552.5 231.0 L 551.0 229.5 L 532.0 229.5 L 529.5 232.0 L 519.5 258.0 L 517.5 279.0 L 535.0 279.5 L 541.0 288.5 L 549.5 288.0 Z"/><path d="M 639.0 255.5 L 626.5 243.0 L 625.0 238.5 L 639.5 254.0 L 639.0 255.5 Z"/><path d="M 640.0 269.5 L 641.5 259.0 L 639.5 256.0 L 644.0 256.5 L 647.0 253.5 L 647.5 255.0 L 642.5 259.0 L 640.0 269.5 Z"/><path d="M 489.0 279.5 L 483.5 271.0 L 484.0 268.5 L 489.5 277.0 L 489.0 279.5 Z"/><path d="M 351.0 290.5 L 339.5 275.0 L 339.0 271.5 L 350.5 287.0 L 351.0 290.5 Z"/><path d="M 647.0 299.5 L 639.5 284.0 L 640.0 281.5 L 647.5 296.0 L 647.0 299.5 Z"/><path d="M 443.0 346.5 L 428.0 344.5 L 422.5 342.0 L 397.0 295.5 L 380.0 293.5 L 371.0 304.5 L 368.0 304.5 L 354.0 295.5 L 351.5 291.0 L 369.0 303.5 L 374.5 298.0 L 376.5 293.0 L 380.0 291.5 L 398.0 294.5 L 401.5 298.0 L 422.5 339.0 L 426.0 342.5 L 443.5 344.0 L 443.5 319.0 L 448.0 316.5 L 445.5 319.0 L 445.5 344.0 L 443.0 346.5 Z"/><path d="M 652.0 348.5 L 649.0 348.5 L 644.5 345.0 L 624.5 318.0 L 622.5 314.0 L 624.5 304.0 L 622.0 299.5 L 626.5 304.0 L 624.5 310.0 L 626.5 318.0 L 650.0 347.5 L 655.0 346.5 L 657.5 343.0 L 659.5 336.0 L 659.5 328.0 L 657.5 325.0 L 658.5 322.0 L 662.5 333.0 L 657.5 346.0 L 652.0 348.5 Z"/><path d="M 451.0 316.5 L 448.5 316.0 L 462.0 308.5 L 474.0 303.5 L 476.5 304.0 L 451.0 316.5 Z"/>
  </g>
</svg>
